<svg xmlns="http://www.w3.org/2000/svg" xmlns:xlink="http://www.w3.org/1999/xlink" version="1.1" width="1000" height="1000" viewBox="0 0 1000 1000" xml:space="preserve">

<rect x="0" y="0" width="100%" height="100%" fill="#ffffff"/>
<g transform="matrix(82.6446 0 0 82.6446 499.9998 499.9999)" id="448367">
<path style="stroke: none; stroke-width: 1; stroke-dasharray: none; stroke-linecap: butt; stroke-dashoffset: 0; stroke-linejoin: miter; stroke-miterlimit: 4; is-custom-font: none; font-file-url: none; fill: rgb(0,0,0); fill-rule: evenodd; opacity: 1;" vector-effect="non-scaling-stroke" transform=" translate(-8, -8)" d="M 2.5 12 a 0.5 0.5 0 0 1 0.5 -0.5 h 10 a 0.5 0.5 0 0 1 0 1 H 3 a 0.5 0.5 0 0 1 -0.5 -0.5 z m 0 -4 a 0.5 0.5 0 0 1 0.5 -0.5 h 10 a 0.5 0.5 0 0 1 0 1 H 3 a 0.5 0.5 0 0 1 -0.5 -0.5 z m 0 -4 a 0.5 0.5 0 0 1 0.5 -0.5 h 10 a 0.5 0.5 0 0 1 0 1 H 3 a 0.5 0.5 0 0 1 -0.5 -0.5 z" stroke-linecap="round"/>
</g>
</svg>